<?xml version="1.0" standalone="no"?>
<!DOCTYPE svg PUBLIC "-//W3C//DTD SVG 1.1//EN" "http://www.w3.org/Graphics/SVG/1.1/DTD/svg11.dtd" >
<svg xmlns="http://www.w3.org/2000/svg">
<metadata></metadata>
<defs>
<font id="robofan_freeregular" horiz-adv-x="1318" >
<font-face units-per-em="2048" ascent="1516" descent="-532" />
<missing-glyph horiz-adv-x="471" />
<glyph horiz-adv-x="2048" />
<glyph horiz-adv-x="2048" />
<glyph unicode="&#xd;" horiz-adv-x="2048" />
<glyph unicode=" "  horiz-adv-x="471" />
<glyph unicode="&#x09;" horiz-adv-x="471" />
<glyph unicode="&#xa0;" horiz-adv-x="471" />
<glyph unicode="!" horiz-adv-x="573" d="M92 0v311h389v-311h-389zM92 1434h389l-20 -1004h-348z" />
<glyph unicode="&#x22;" horiz-adv-x="944" d="M25 877l116 557h348l-127 -557h-337zM455 877l116 557h349l-127 -557h-338z" />
<glyph unicode="#" horiz-adv-x="1656" d="M37 291l47 280h293l51 291h-291l47 281h293l51 291h281l-53 -291h291l53 291h278l-51 -291h291l-47 -281h-293l-51 -291h291l-48 -280h-292l-52 -291h-280l53 291h-291l-53 -291h-279l52 291h-291zM655 571h291l53 291h-290z" />
<glyph unicode="$" d="M51 0l123 352h623v213h-435q-109 0 -179 70.5t-70 179.5v369q0 109 70 179.5t179 70.5h154v239h311v-239h420l-123 -353h-581v-213h434q109 0 179.5 -70.5t70.5 -179.5v-368q0 -109 -70.5 -179.5t-179.5 -70.5h-150v-231h-311v231h-465z" />
<glyph unicode="%" horiz-adv-x="1843" d="M82 758v532q0 63 40 103.5t103 40.5h373q63 0 103 -40.5t40 -103.5v-532q0 -63 -40 -103.5t-103 -40.5h-373q-63 0 -103 40.5t-40 103.5zM328 815h168v416h-168v-416zM465 0l592 1434h317l-592 -1434h-317zM1104 143v533q0 63 39.5 103t101.5 40h375q63 0 103 -40 t40 -103v-533q0 -63 -40 -103t-103 -40h-375q-62 0 -101.5 40t-39.5 103zM1350 201h168v417h-168v-417z" />
<glyph unicode="&#x26;" horiz-adv-x="1312" d="M82 250v301q0 78 41 119q39 39 86 45q-49 3 -86 35q-41 35 -41 104v330q0 109 70.5 179.5t179.5 70.5h823l-123 -353h-522v-215h803v-278h-250q58 -5 97.5 -49.5t39.5 -106.5v-182q0 -109 -70.5 -179.5t-179.5 -70.5h-618q-109 0 -179.5 70.5t-70.5 179.5zM510 352h262 v236h-262v-236z" />
<glyph unicode="'" horiz-adv-x="512" d="M25 877l116 557h348l-127 -557h-337z" />
<glyph unicode="(" horiz-adv-x="753" d="M164 20v1401q0 103 74.5 177.5t177.5 74.5h297v-223h-240v-1458h240v-223h-297q-103 0 -177.5 74t-74.5 177z" />
<glyph unicode=")" horiz-adv-x="753" d="M41 -8h240v1458h-240v223h297q103 0 177.5 -74.5t74.5 -177.5v-1401q0 -103 -74.5 -177t-177.5 -74h-297v223z" />
<glyph unicode="*" horiz-adv-x="681" d="M31 1001l186 109l-186 109l61 106l189 -104v213h122v-215l187 106l61 -106l-184 -109l184 -109l-61 -106l-187 106v-215h-122v215l-189 -106z" />
<glyph unicode="+" d="M96 573v267h410v460h307v-460h410v-267h-410v-440h-307v440h-410z" />
<glyph unicode="," horiz-adv-x="512" d="M10 -246l117 557h348l-127 -557h-338z" />
<glyph unicode="-" horiz-adv-x="741" d="M41 432l121 311h538l-122 -311h-537z" />
<glyph unicode="." horiz-adv-x="512" d="M61 0v311h390v-311h-390z" />
<glyph unicode="/" horiz-adv-x="944" d="M-41 -231l696 1896h359l-697 -1896h-358z" />
<glyph unicode="0" d="M82 250v934q0 109 70.5 179.5t179.5 70.5h655q109 0 179.5 -70.5t70.5 -179.5v-934q0 -109 -70.5 -179.5t-179.5 -70.5h-655q-109 0 -179.5 70.5t-70.5 179.5zM512 352h295v729h-295v-729z" />
<glyph unicode="1" d="M57 1081l123 353h520q109 0 179.5 -70.5t70.5 -179.5v-832h305l-122 -352h-1074l123 352h338v729h-463z" />
<glyph unicode="2" d="M92 0v612q0 109 70.5 179.5t179.5 70.5h455v219h-705l123 353h762q109 0 179.5 -70.5t70.5 -179.5v-350q0 -109 -70.5 -179.5t-179.5 -70.5h-455v-232h725l-123 -352h-1032z" />
<glyph unicode="3" d="M61 0l123 352h625v226h-625v278h625v225h-748l123 353h803q109 0 179.5 -70.5t70.5 -179.5v-291q0 -78 -43 -121q-40 -40 -86 -43q42 -3 86 -35q43 -34 43 -104v-340q0 -109 -70.5 -179.5t-179.5 -70.5h-926z" />
<glyph unicode="4" d="M74 602v832h430v-729h295v376h430v-1081h-430v352h-475q-109 0 -179.5 70.5t-70.5 179.5z" />
<glyph unicode="5" d="M86 0l123 352h602v232h-684v850h1114l-123 -353h-561v-219h434q109 0 179.5 -70.5t70.5 -179.5v-362q0 -109 -70.5 -179.5t-179.5 -70.5h-905z" />
<glyph unicode="6" d="M82 250v934q0 109 70.5 179.5t179.5 70.5h905l-123 -353h-602v-190h475q109 0 179.5 -70.5t70.5 -179.5v-391q0 -109 -70.5 -179.5t-179.5 -70.5h-655q-109 0 -179.5 70.5t-70.5 179.5zM512 352h295v258h-295v-258z" />
<glyph unicode="7" d="M57 1081l123 353h787q124 0 194 -77.5t70 -195.5l-457 -1161h-450l436 1081h-703z" />
<glyph unicode="8" d="M82 250v291q0 78 43 121q37 37 84 43q-48 3 -84 32q-43 34 -43 107v340q0 109 70.5 179.5t179.5 70.5h659q107 -1 176.5 -72t69.5 -178v-291q0 -78 -43 -121q-40 -40 -84 -43q39 -5 84 -35q43 -34 43 -104v-340q0 -109 -70.5 -179.5t-179.5 -70.5h-655 q-109 0 -179.5 70.5t-70.5 179.5zM510 332h299v246h-299v-246zM510 856h299v246h-299v-246z" />
<glyph unicode="9" d="M82 0l123 352h602v191h-475q-109 0 -179.5 70.5t-70.5 179.5v391q0 109 70.5 179.5t179.5 70.5h655q109 0 179.5 -70.5t70.5 -179.5v-934q0 -109 -70.5 -179.5t-179.5 -70.5h-905zM512 823h295v258h-295v-258z" />
<glyph unicode=":" horiz-adv-x="512" d="M61 0v311h390v-311h-390zM61 764v311h390v-311h-390z" />
<glyph unicode=";" horiz-adv-x="512" d="M-10 -246l116 557h349l-127 -557h-338zM61 764v311h390v-311h-390z" />
<glyph unicode="&#x3c;" d="M129 717q0 66 36.5 126.5t106.5 98.5l879 492v-347l-676 -370l676 -371v-346l-879 492q-70 38 -106.5 98.5t-36.5 126.5z" />
<glyph unicode="=" d="M178 297v287h963v-287h-963zM178 788v287h963v-287h-963z" />
<glyph unicode="&#x3e;" d="M168 0v346l676 371l-676 370v347l879 -492q70 -38 106.5 -98.5t36.5 -126.5t-36.5 -126.5t-106.5 -98.5z" />
<glyph unicode="?" horiz-adv-x="1114" d="M41 1081l123 353h618q109 0 179.5 -70.5t70.5 -179.5v-350q0 -109 -70.5 -179.5t-179.5 -70.5h-149v-191h-389v240q0 109 71.5 179.5t180.5 70.5h147v198h-602zM244 0v311h389v-311h-389z" />
<glyph unicode="@" horiz-adv-x="1961" d="M82 -104v1245q0 127 83 210t208 83h1218q124 0 206.5 -83t82.5 -210v-785q0 -126 -83 -209.5t-206 -83.5h-819q-84 0 -145.5 63.5t-61.5 152.5v116q0 89 61.5 152t145.5 63h285v101h-492l103 262h510q84 0 145 -62.5t61 -152.5v-447h175v836h-1162v-1260h1483v-280h-1507 q-125 0 -208 82t-83 207zM874 311h183v113h-183v-113z" />
<glyph unicode="A" horiz-adv-x="1505" d="M0 0l391 1434h725l389 -1434h-835v311h280l-164 709h-81l-256 -1020h-449z" />
<glyph unicode="B" horiz-adv-x="1370" d="M92 0v1434h946q109 0 179.5 -70.5t70.5 -179.5v-291q0 -78 -43 -121q-40 -40 -86 -43q42 -3 86 -35q43 -34 43 -104v-340q0 -109 -70.5 -179.5t-179.5 -70.5h-946zM522 332h336v266h-336v-266zM522 836h336v266h-336v-266z" />
<glyph unicode="C" horiz-adv-x="1196" d="M82 250v934q0 109 70.5 179.5t179.5 70.5h823l-123 -353h-520v-729h643l-123 -352h-700q-109 0 -179.5 70.5t-70.5 179.5z" />
<glyph unicode="D" horiz-adv-x="1370" d="M92 0v1434h946q109 0 179.5 -70.5t70.5 -179.5v-934q0 -109 -70.5 -179.5t-179.5 -70.5h-946zM522 352h336v729h-336v-729z" />
<glyph unicode="E" horiz-adv-x="1277" d="M123 0v1434h1094l-123 -353h-541v-221h541v-270h-541v-238h664l-123 -352h-971z" />
<glyph unicode="F" horiz-adv-x="1206" d="M92 0v1434h1094l-123 -353h-541v-266h541v-319h-541v-496h-430z" />
<glyph unicode="G" d="M82 250v934q0 109 70.5 179.5t179.5 70.5h925l-122 -353h-623v-729h356v221h-209l99 283h477v-856h-903q-109 0 -179.5 70.5t-70.5 179.5z" />
<glyph unicode="H" horiz-adv-x="1421" d="M92 0v1434h430v-543h377v543h430v-1434h-430v541h-377v-541h-430z" />
<glyph unicode="I" horiz-adv-x="614" d="M92 0v1434h430v-1434h-430z" />
<glyph unicode="J" horiz-adv-x="823" d="M0 0l123 352h178v1082h430v-1184q0 -109 -70.5 -179.5t-179.5 -70.5h-481z" />
<glyph unicode="K" horiz-adv-x="1402" d="M92 0v1434h430v-543h170l185 543h491l-225 -543q-27 -64 -63.5 -99.5t-86.5 -50.5q53 -11 90 -41t62 -90l248 -610h-508l-197 539h-166v-539h-430z" />
<glyph unicode="L" horiz-adv-x="1071" d="M92 0v1434h430v-1082h549l-123 -352h-856z" />
<glyph unicode="M" horiz-adv-x="2131" d="M92 0v1434h1708q109 0 179.5 -70.5t70.5 -179.5v-1184h-430v1081h-334v-1081h-430v1081h-334v-1081h-430z" />
<glyph unicode="N" horiz-adv-x="1411" d="M92 0v1434h987q109 0 179.5 -70.5t70.5 -179.5v-1184h-430v1081h-377v-1081h-430z" />
<glyph unicode="O" horiz-adv-x="1400" d="M82 250v934q0 109 70.5 179.5t179.5 70.5h737q109 0 179.5 -70.5t70.5 -179.5v-934q0 -109 -70.5 -179.5t-179.5 -70.5h-737q-109 0 -179.5 70.5t-70.5 179.5zM512 352h377v729h-377v-729z" />
<glyph unicode="P" horiz-adv-x="1347" d="M92 0v1434h944q109 0 179.5 -70.5t70.5 -179.5v-473q0 -109 -70.5 -179.5t-179.5 -70.5h-514v-461h-430zM522 782h336v299h-336v-299z" />
<glyph unicode="Q" horiz-adv-x="1400" d="M82 250v934q0 109 70.5 179.5t179.5 70.5h737q109 0 179.5 -70.5t70.5 -179.5v-934q0 -15 -4 -43l143 -207h-379h-10h-737q-109 0 -179.5 70.5t-70.5 179.5zM512 352h244l-146 232h279v497h-377v-729z" />
<glyph unicode="R" horiz-adv-x="1394" d="M92 0v1434h965q109 0 179.5 -70.5t70.5 -179.5v-377q0 -91 -59 -150t-150 -59h-19l316 -598h-443l-383 774h308v307h-355v-1081h-430z" />
<glyph unicode="S" horiz-adv-x="1277" d="M20 0l123 352h623v213h-434q-109 0 -179.5 70.5t-70.5 179.5v369q0 109 70.5 179.5t179.5 70.5h885l-123 -353h-582v-213h434q109 0 179.5 -70.5t70.5 -179.5v-368q0 -109 -70.5 -179.5t-179.5 -70.5h-926z" />
<glyph unicode="T" horiz-adv-x="1277" d="M-20 1081l122 353h1135v-353h-383v-1081h-430v1081h-444z" />
<glyph unicode="U" horiz-adv-x="1390" d="M82 209v1225h430v-1082h356v1082h430v-1434h-1007q-91 0 -150 59t-59 150z" />
<glyph unicode="V" horiz-adv-x="1505" d="M0 1434h483l236 -1045h82l235 1045h469l-370 -1434h-521q-123 0 -197.5 51.5t-103.5 163.5z" />
<glyph unicode="W" horiz-adv-x="2131" d="M82 250v1184h430v-1082h334v1082h430v-1082h334v1082h430v-1434h-1708q-109 0 -179.5 70.5t-70.5 179.5z" />
<glyph unicode="X" horiz-adv-x="1417" d="M0 0l248 610q45 109 151 131q-97 29 -149 150l-225 543h471l184 -523h57l185 523h471l-226 -543q-52 -121 -149 -150q106 -22 151 -131l248 -610h-487l-197 518h-49l-197 -518h-487z" />
<glyph unicode="Y" horiz-adv-x="1376" d="M82 0l123 352h649v140h-537q-91 0 -149.5 58.5t-58.5 149.5v734h430v-590h315v590h430v-1184q0 -109 -70.5 -179.5t-179.5 -70.5h-952z" />
<glyph unicode="Z" horiz-adv-x="1257" d="M72 0v311l563 770h-563v353h1114v-312l-563 -770h624l-123 -352h-1052z" />
<glyph unicode="[" horiz-adv-x="753" d="M164 -231v1904h549v-223h-240v-1458h240v-223h-549z" />
<glyph unicode="\" horiz-adv-x="944" d="M-70 1665h359l696 -1896h-358z" />
<glyph unicode="]" horiz-adv-x="753" d="M41 -8h240v1458h-240v223h549v-1904h-549v223z" />
<glyph unicode="^" horiz-adv-x="1024" d="M78 1167l260 308h350l260 -308h-338l-98 111l-96 -111h-338z" />
<glyph unicode="_" horiz-adv-x="1200" d="M41 -231l90 231h1028l-92 -231h-1026z" />
<glyph unicode="a" horiz-adv-x="1118" d="M61 252v139q0 103 74.5 177.5t177.5 74.5h334v121h-586l123 311h600q103 0 177.5 -74.5t74.5 -177.5v-823h-723q-103 0 -177.5 74.5t-74.5 177.5zM430 291h217v135h-217v-135z" />
<glyph unicode="b" horiz-adv-x="1196" d="M86 0v1475h389v-400h395q103 0 177.5 -74.5t74.5 -177.5v-571q0 -103 -74.5 -177.5t-177.5 -74.5h-784zM475 270h258v535h-258v-535z" />
<glyph unicode="c" horiz-adv-x="997" d="M74 252v571q0 103 74.5 177.5t177.5 74.5h641l-123 -311h-381v-453h514l-123 -311h-528q-103 0 -177.5 74.5t-74.5 177.5z" />
<glyph unicode="d" horiz-adv-x="1196" d="M74 252v571q0 103 74.5 177.5t177.5 74.5h395v400h389v-1475h-784q-103 0 -177.5 74.5t-74.5 177.5zM463 270h258v535h-258v-535z" />
<glyph unicode="e" horiz-adv-x="1110" d="M74 252v571q0 103 74.5 177.5t177.5 74.5h471q103 0 177.5 -74.5t74.5 -177.5v-139q0 -103 -74.5 -177.5t-177.5 -74.5h-334v-121h606l-123 -311h-620q-103 0 -177.5 74.5t-74.5 177.5zM463 649h217v135h-217v-135z" />
<glyph unicode="f" horiz-adv-x="729" d="M18 764l121 311v148q0 103 74.5 177.5t177.5 74.5h410l-115 -291h-158v-109h232l-123 -311h-109v-764h-389v764h-121z" />
<glyph unicode="g" horiz-adv-x="1196" d="M55 -393l113 291h553v122h-395q-103 0 -177.5 74.5t-74.5 177.5v551q0 103 74.5 177.5t177.5 74.5h784v-1274q0 -79 -57.5 -136.5t-137.5 -57.5h-860zM463 291h258v514h-258v-514z" />
<glyph unicode="h" horiz-adv-x="1224" d="M86 0v1475h389v-400h416q103 0 177.5 -74.5t74.5 -177.5v-823h-389v764h-279v-764h-389z" />
<glyph unicode="i" horiz-adv-x="561" d="M86 0v1075h389v-1075h-389zM86 1194v281h389v-281h-389z" />
<glyph unicode="j" horiz-adv-x="561" d="M-166 -393l115 291h137v1177h389v-1216q0 -103 -74.5 -177.5t-177.5 -74.5h-389zM86 1194v281h389v-281h-389z" />
<glyph unicode="k" horiz-adv-x="1196" d="M86 0v1475h389v-760h94l146 360h440l-203 -411q-17 -32 -23.5 -43.5t-19.5 -29.5t-27 -26t-34 -14q89 -16 127 -98l201 -453h-457l-150 381h-94v-381h-389z" />
<glyph unicode="l" horiz-adv-x="647" d="M82 252v1223h389v-1164h176l-123 -311h-190q-103 0 -177.5 74.5t-74.5 177.5z" />
<glyph unicode="m" horiz-adv-x="1814" d="M86 0v1075h1395q103 0 177.5 -74.5t74.5 -177.5v-823h-390v764h-239v-764h-389v764h-240v-764h-389z" />
<glyph unicode="n" horiz-adv-x="1224" d="M86 0v1075h805q103 0 177.5 -74.5t74.5 -177.5v-823h-389v764h-279v-764h-389z" />
<glyph unicode="o" horiz-adv-x="1183" d="M74 252v571q0 103 74.5 177.5t177.5 74.5h532q103 0 177.5 -74.5t74.5 -177.5v-571q0 -103 -74.5 -177.5t-177.5 -74.5h-532q-103 0 -177.5 74.5t-74.5 177.5zM463 270h258v535h-258v-535z" />
<glyph unicode="p" horiz-adv-x="1196" d="M86 -393v1468h784q103 0 177.5 -74.5t74.5 -177.5v-571q0 -103 -74.5 -177.5t-177.5 -74.5h-395v-393h-389zM475 270h258v535h-258v-535z" />
<glyph unicode="q" horiz-adv-x="1196" d="M74 252v571q0 103 74.5 177.5t177.5 74.5h784v-1468h-389v393h-395q-103 0 -177.5 74.5t-74.5 177.5zM463 270h258v535h-258v-535z" />
<glyph unicode="r" horiz-adv-x="798" d="M82 0v823q0 103 74.5 177.5t177.5 74.5h485l-123 -311h-225v-764h-389z" />
<glyph unicode="s" horiz-adv-x="1062" d="M37 0l115 291h454v115h-293q-103 0 -177.5 74t-74.5 177v166q0 103 74.5 177.5t177.5 74.5h719l-114 -291h-467v-108h292q103 0 177.5 -74.5t74.5 -177.5v-172q0 -103 -74.5 -177.5t-177.5 -74.5h-706z" />
<glyph unicode="t" horiz-adv-x="772" d="M14 764l121 311v174h389v-174h232l-123 -311h-109v-453h238l-123 -311h-252q-103 0 -177.5 74.5t-74.5 177.5v512h-121z" />
<glyph unicode="u" horiz-adv-x="1204" d="M82 252v823h389v-764h258v764h389v-1075h-784q-103 0 -177.5 74.5t-74.5 177.5z" />
<glyph unicode="v" horiz-adv-x="1212" d="M0 1075h426l160 -729h61l156 729h409l-309 -1075h-371q-123 0 -194 48.5t-105 172.5z" />
<glyph unicode="w" horiz-adv-x="1814" d="M82 252v823h389v-764h240v764h389v-764h239v764h390v-1075h-1395q-103 0 -177.5 74.5t-74.5 177.5z" />
<glyph unicode="x" horiz-adv-x="1232" d="M20 0l201 430q47 90 125 113q-85 15 -127 98l-199 434h457l129 -319h41l125 319h440l-202 -411q-47 -90 -125 -113q85 -15 127 -98l200 -453h-456l-129 340h-41l-125 -340h-441z" />
<glyph unicode="y" horiz-adv-x="1204" d="M53 -393l115 291h561v122h-395q-103 0 -177.5 74.5t-74.5 177.5v803h389v-743h258v743h389v-1216q0 -103 -74.5 -177.5t-177.5 -74.5h-813z" />
<glyph unicode="z" horiz-adv-x="1097" d="M82 0v270l440 494h-440v311h760q80 0 127 -47.5t47 -126.5v-96l-441 -494h482l-123 -311h-852z" />
<glyph unicode="{" horiz-adv-x="737" d="M82 600v242q51 0 85 32t34 87v460q0 103 74.5 177.5t177.5 74.5h256v-223h-199v-586q0 -55 -28 -93t-81 -50q53 -12 81 -50t28 -93v-586h199v-223h-256q-103 0 -177.5 74t-74.5 177v461q0 55 -34 87t-85 32z" />
<glyph unicode="|" horiz-adv-x="495" d="M82 -231v1896h332v-1896h-332z" />
<glyph unicode="}" horiz-adv-x="737" d="M29 -6h198v586q0 55 28 93t81 50q-53 12 -81 50t-28 93v586h-198v223h256q103 0 177.5 -74.5t74.5 -177.5v-460q0 -55 33.5 -87t84.5 -32v-242q-51 0 -84.5 -32t-33.5 -87v-460q0 -103 -74.5 -177.5t-177.5 -74.5h-256v223z" />
<glyph unicode="~" horiz-adv-x="1024" d="M94 1167v84q0 113 77.5 179.5t207.5 66.5q98 0 164.5 -39.5t99.5 -105.5h62v123h233v-84q0 -113 -77.5 -179.5t-207.5 -66.5q-98 0 -164.5 39.5t-99.5 105.5h-61v-123h-234z" />
<glyph unicode="&#xa1;" horiz-adv-x="573" d="M92 0l21 1004h348l20 -1004h-389zM92 1122v312h389v-312h-389z" />
<glyph unicode="&#xa2;" d="M238 254v571q0 103 74 177.5t177 74.5h48v205h389v-205h204l-122 -311h-381v-453h514l-123 -311h-92v-205h-389v205h-48q-103 0 -177 74.5t-74 177.5z" />
<glyph unicode="&#xa3;" d="M10 0l123 352h62v258h-138l76 219h62v355q0 109 70 179.5t179 70.5h668l-123 -353h-364v-252h438l-74 -219h-364v-258h643l-123 -352h-701h-12h-422z" />
<glyph unicode="&#xa4;" d="M0 221l174 174q-6 24 -6 51v543q0 28 6 49l-162 166l162 160l154 -152q43 15 80 15h503q33 0 80 -15l154 152l162 -160l-162 -166q6 -21 6 -49v-543q0 -26 -6 -53l174 -172l-162 -162l-166 162q-30 -12 -80 -12h-503q-52 0 -80 12l-164 -162zM479 465h361v506h-361v-506z " />
<glyph unicode="&#xa5;" d="M-35 1434h481l211 -506h41l211 506h445l-377 -713h205l-74 -219h-236v-86h310l-74 -219h-236v-197h-430v197h-323l76 219h247v86h-323l76 219h143z" />
<glyph unicode="&#xa6;" horiz-adv-x="495" d="M82 -231v845h332v-845h-332zM82 819v846h332v-846h-332z" />
<glyph unicode="&#xa7;" horiz-adv-x="1214" d="M61 -393l146 330h524v198h-405q-103 0 -169.5 66.5t-66.5 169.5v47q0 77 38.5 134.5t104.5 84.5q-65 25 -104 83t-39 134v346q0 101 66.5 167.5t169.5 66.5h827l-115 -330h-544v-199h407q101 0 167.5 -66.5t66.5 -168.5v-52q0 -75 -38 -132.5t-102 -84.5q64 -27 102 -84 t38 -131v-346q0 -101 -66.5 -167t-167.5 -66h-840zM494 420h237v201h-237v-201z" />
<glyph unicode="&#xa9;" horiz-adv-x="1562" d="M82 182v1069q0 75 53.5 129t128.5 54h1032q76 0 130.5 -54t54.5 -129v-1069q0 -75 -54.5 -128.5t-130.5 -53.5h-1032q-75 0 -128.5 53.5t-53.5 128.5zM313 197h934v1038h-934v-1038zM457 510v414q0 75 53.5 128.5t128.5 53.5h465l-90 -223h-277v-332h375l-88 -223h-385 q-75 0 -128.5 53.5t-53.5 128.5z" />
<glyph unicode="&#xaa;" horiz-adv-x="806" d="M117 936v86q0 62 45 107t106 45h201v71h-352l76 189h360q61 0 106.5 -45t45.5 -107v-496h-437q-62 0 -106.5 44.5t-44.5 105.5zM340 961h129v81h-129v-81z" />
<glyph unicode="&#xab;" horiz-adv-x="1126" d="M41 696q0 86 59 158l326 403l186 -139l-344 -422l344 -422l-186 -139l-326 404q-59 72 -59 157zM512 696q0 86 59 158l326 403l186 -139l-344 -422l344 -422l-186 -139l-326 404q-59 72 -59 157z" />
<glyph unicode="&#xac;" d="M154 532v267h1011v-553h-309v286h-702z" />
<glyph unicode="&#xad;" horiz-adv-x="741" d="M41 432l121 311h538l-122 -311h-537z" />
<glyph unicode="&#xae;" horiz-adv-x="1212" d="M82 137v801q0 57 40 97t97 40h774q57 0 97 -40t40 -97v-801q0 -57 -40 -97t-97 -40h-774q-57 0 -97 40t-40 97zM256 147h700v779h-700v-779zM352 240v594h400q46 0 76 -29.5t30 -73.5v-158q0 -37 -25 -61.5t-63 -24.5h-6l129 -247h-184l-158 321h127v127h-148v-448h-178z " />
<glyph unicode="&#xb0;" horiz-adv-x="614" d="M51 1300q0 106 75 181t181 75t181 -75t75 -181t-75 -181t-181 -75t-181 75t-75 181zM205 1198h205v205h-205v-205z" />
<glyph unicode="&#xb1;" d="M96 768v266h410v400h307v-400h410v-266h-410v-379h-307v379h-410zM178 0v287h963v-287h-963z" />
<glyph unicode="&#xb6;" d="M61 754v428q0 103 74.5 177.5t177.5 74.5h944v-312h-120v-1122h-238v1122h-174v-1122h-240v502h-172q-103 0 -177.5 74.5t-74.5 177.5z" />
<glyph unicode="&#xba;" horiz-adv-x="806" d="M92 940v342q0 62 45 107t107 45h317q63 0 107.5 -45t44.5 -107v-342q0 -62 -44.5 -107t-107.5 -45h-317q-62 0 -107 45t-45 107zM326 950h153v322h-153v-322z" />
<glyph unicode="&#xbb;" horiz-adv-x="1126" d="M43 274l344 422l-344 422l186 139l326 -403q59 -72 59 -158q0 -85 -59 -157l-326 -404zM514 274l344 422l-344 422l186 139l326 -403q59 -72 59 -158q0 -85 -59 -157l-326 -404z" />
<glyph unicode="&#xbc;" horiz-adv-x="1843" d="M49 1233l70 201h297q63 0 103 -40.5t40 -103.5v-475h174l-69 -201h-613l70 201h192v418h-264zM451 0l591 1434h318l-592 -1434h-317zM1120 344v475h244v-416h170v215h246v-618h-246v201h-272q-62 0 -102 40t-40 103z" />
<glyph unicode="&#xbd;" horiz-adv-x="1843" d="M49 1233l70 201h297q63 0 103 -40.5t40 -103.5v-475h174l-69 -201h-613l70 201h192v418h-264zM473 0l592 1434h317l-591 -1434h-318zM1120 0v350q0 62 40.5 103t101.5 41h260v124h-402l70 201h434q63 0 103 -40t40 -103v-199q0 -63 -40 -103t-103 -40h-258v-133h414 l-72 -201h-588z" />
<glyph unicode="&#xbe;" horiz-adv-x="1843" d="M49 614l70 201h358v129h-358v160h358v129h-428l70 201h459q63 0 103 -40.5t40 -103.5v-166q0 -44 -25 -69q-22 -22 -47 -25q26 -3 47 -18q25 -19 25 -60v-194q0 -63 -40 -103.5t-103 -40.5h-529zM451 0l591 1434h318l-592 -1434h-317zM1120 344v475h244v-416h170v215h246 v-618h-246v201h-272q-62 0 -102 40t-40 103z" />
<glyph unicode="&#xbf;" horiz-adv-x="1114" d="M82 250v350q0 109 70.5 179.5t179.5 70.5h149v190h389v-239q0 -109 -71.5 -179.5t-180.5 -70.5h-147v-199h602l-123 -352h-618q-109 0 -179.5 70.5t-70.5 179.5zM481 1122v312h389v-312h-389z" />
<glyph unicode="&#xc6;" horiz-adv-x="2043" d="M-41 0l453 1434h1570l-122 -353h-541v-221h541v-270h-541v-238h663l-122 -352h-971v1081h-166l-315 -1081h-449z" />
<glyph unicode="&#xd0;" horiz-adv-x="1370" d="M-18 575l110 285v574h946q109 0 179.5 -70.5t70.5 -179.5v-934q0 -109 -70.5 -179.5t-179.5 -70.5h-946v575h-110zM522 352h336v729h-336v-221h221l-112 -285h-109v-223z" />
<glyph unicode="&#xd7;" d="M143 399l318 318l-318 317l197 195l317 -318l318 318l196 -195l-317 -317l317 -318l-196 -196l-318 317l-317 -317z" />
<glyph unicode="&#xd8;" horiz-adv-x="1400" d="M-18 37l112 129q-12 41 -12 84v934q0 109 70.5 179.5t179.5 70.5h737q56 0 107 -23l73 84l154 -119l-96 -110q12 -40 12 -82v-934q0 -109 -70.5 -179.5t-179.5 -70.5h-737q-65 0 -109 20l-88 -100zM512 352h377v434zM512 647l377 432v2h-377v-434z" />
<glyph unicode="&#xde;" horiz-adv-x="1347" d="M92 0v1434h430v-226h514q109 0 179.5 -70.5t70.5 -179.5v-473q0 -109 -70.5 -179t-179.5 -70h-514v-236h-430zM522 557h336v299h-336v-299z" />
<glyph unicode="&#xdf;" horiz-adv-x="1386" d="M139 0v1223q0 103 74.5 177.5t177.5 74.5h637q109 0 179.5 -70.5t70.5 -179.5v-312q0 -72 -38.5 -115t-88.5 -48q44 -6 86 -37q41 -30 41 -103v-360q0 -109 -70.5 -179.5t-179.5 -70.5h-457l123 311h195v287h-195v279h195v307h-361v-1184h-389z" />
<glyph unicode="&#xe6;" horiz-adv-x="1683" d="M61 252v139q0 103 74.5 177.5t177.5 74.5h334v121h-586l123 311h1186q103 0 177.5 -74.5t74.5 -177.5v-139q0 -103 -74.5 -177.5t-177.5 -74.5h-334v-121h606l-122 -311h-1207q-103 0 -177.5 74.5t-74.5 177.5zM430 291h217v135h-217v-135zM1036 649h217v135h-217v-135z " />
<glyph unicode="&#xf0;" horiz-adv-x="1196" d="M61 1163l123 312h265l47 124h307l-47 -124h102q103 0 177.5 -74.5t74.5 -177.5v-971q0 -103 -74.5 -177.5t-177.5 -74.5h-532q-103 0 -177.5 74.5t-74.5 177.5v326q0 103 74.5 177t177.5 74h395v334h-84l-86 -227h-307l86 227h-269zM463 270h258v289h-258v-289z" />
<glyph unicode="&#xf7;" d="M182 561v311h955v-311h-955zM506 168v291h307v-291h-307zM506 975v291h307v-291h-307z" />
<glyph unicode="&#xf8;" horiz-adv-x="1183" d="M-31 29l127 121q-22 49 -22 102v571q0 103 74.5 177.5t177.5 74.5h532q79 0 150 -51l104 100l94 -96l-116 -110q20 -52 20 -95v-571q0 -103 -74.5 -177.5t-177.5 -74.5h-532q-84 0 -146 47l-117 -113zM463 270h258v293l-258 -248v-45zM463 502l258 248v55h-258v-303z" />
<glyph unicode="&#xfe;" horiz-adv-x="1196" d="M86 -393v1868h389v-400h395q103 0 177.5 -74.5t74.5 -177.5v-571q0 -103 -74.5 -177.5t-177.5 -74.5h-395v-393h-389zM475 270h258v535h-258v-535z" />
<glyph unicode="&#x152;" horiz-adv-x="2043" d="M82 250v934q0 109 70.5 179.5t179.5 70.5h1650l-122 -353h-541v-221h541v-270h-541v-238h663l-122 -352h-1528q-109 0 -179.5 70.5t-70.5 179.5zM512 352h377v729h-377v-729z" />
<glyph unicode="&#x153;" horiz-adv-x="1757" d="M74 252v571q0 103 74.5 177.5t177.5 74.5h1118q103 0 177.5 -74.5t74.5 -177.5v-139q0 -103 -74.5 -177.5t-177.5 -74.5h-334v-121h606l-123 -311h-1267q-103 0 -177.5 74.5t-74.5 177.5zM463 270h258v535h-258v-535zM1110 649h217v135h-217v-135z" />
<glyph unicode="&#x2000;" horiz-adv-x="837" />
<glyph unicode="&#x2001;" horiz-adv-x="1675" />
<glyph unicode="&#x2002;" horiz-adv-x="837" />
<glyph unicode="&#x2003;" horiz-adv-x="1675" />
<glyph unicode="&#x2004;" horiz-adv-x="558" />
<glyph unicode="&#x2005;" horiz-adv-x="418" />
<glyph unicode="&#x2006;" horiz-adv-x="279" />
<glyph unicode="&#x2007;" horiz-adv-x="279" />
<glyph unicode="&#x2008;" horiz-adv-x="209" />
<glyph unicode="&#x2009;" horiz-adv-x="335" />
<glyph unicode="&#x200a;" horiz-adv-x="93" />
<glyph unicode="&#x2010;" horiz-adv-x="741" d="M41 432l121 311h538l-122 -311h-537z" />
<glyph unicode="&#x2011;" horiz-adv-x="741" d="M41 432l121 311h538l-122 -311h-537z" />
<glyph unicode="&#x2012;" horiz-adv-x="741" d="M41 432l121 311h538l-122 -311h-537z" />
<glyph unicode="&#x2013;" horiz-adv-x="1024" d="M41 432l121 311h821l-123 -311h-819z" />
<glyph unicode="&#x2014;" horiz-adv-x="1310" d="M41 432l121 311h1108l-123 -311h-1106z" />
<glyph unicode="&#x2018;" horiz-adv-x="512" d="M25 877l116 557h348l-127 -557h-337z" />
<glyph unicode="&#x2019;" horiz-adv-x="512" d="M25 877l116 557h348l-127 -557h-337z" />
<glyph unicode="&#x201a;" horiz-adv-x="512" d="M10 -246l117 557h348l-127 -557h-338z" />
<glyph unicode="&#x201c;" horiz-adv-x="944" d="M25 877l116 557h348l-127 -557h-337zM455 877l116 557h349l-127 -557h-338z" />
<glyph unicode="&#x201d;" horiz-adv-x="944" d="M25 877l116 557h348l-127 -557h-337zM455 877l116 557h349l-127 -557h-338z" />
<glyph unicode="&#x201e;" horiz-adv-x="944" d="M25 -246l116 557h348l-127 -557h-337zM455 -246l116 557h349l-127 -557h-338z" />
<glyph unicode="&#x2022;" horiz-adv-x="819" d="M100 399v617h617v-617h-617z" />
<glyph unicode="&#x2026;" horiz-adv-x="1310" d="M61 0v311h328v-311h-328zM492 0v311h327v-311h-327zM922 0v311h327v-311h-327z" />
<glyph unicode="&#x202f;" horiz-adv-x="335" />
<glyph unicode="&#x2039;" horiz-adv-x="655" d="M41 696q0 86 59 158l326 403l186 -139l-344 -422l344 -422l-186 -139l-326 404q-59 72 -59 157z" />
<glyph unicode="&#x203a;" horiz-adv-x="655" d="M43 274l344 422l-344 422l186 139l326 -403q59 -72 59 -158q0 -85 -59 -157l-326 -404z" />
<glyph unicode="&#x205f;" horiz-adv-x="418" />
<glyph unicode="&#x20ac;" d="M31 455l75 219h70v86h-145l75 219h70v205q0 109 70.5 179.5t179.5 70.5h823l-123 -353h-520v-102h488l-74 -219h-414v-86h488l-74 -219h-414v-103h643l-123 -352h-700q-109 0 -179.5 70.5t-70.5 179.5v205h-145z" />
<glyph unicode="&#x2122;" horiz-adv-x="1308" d="M0 1303l45 131h424v-131h-143v-404h-160v404h-166zM537 899v535h637q41 0 67.5 -27t26.5 -68v-440h-162v404h-123v-404h-162v404h-125v-404h-159z" />
<glyph unicode="&#xe000;" horiz-adv-x="1075" d="M0 0v1075h1075v-1075h-1075z" />
<glyph unicode="&#xfb01;" horiz-adv-x="1290" d="M18 764l121 311v148q0 103 74.5 177.5t177.5 74.5h813v-281h-676v-119h232l-123 -311h-109v-764h-389v764h-121zM815 0v1075h389v-1075h-389z" />
<glyph unicode="&#xfb02;" horiz-adv-x="1376" d="M18 764l121 311v148q0 103 74.5 177.5t177.5 74.5h809v-1164h176l-123 -311h-190q-103 0 -177.5 74.5t-74.5 177.5v932h-283v-109h232l-123 -311h-109v-764h-389v764h-121z" />
</font>
</defs>
</svg>
